<?xml version="1.0" encoding="UTF-8" standalone="no"?>
<!-- Created with Inkscape (http://www.inkscape.org/) -->

<svg
   width="358.6308"
   height="358.63074"
   viewBox="0 0 358.6308 358.63074"
   version="1.1"
   id="svg1"
   xml:space="preserve"
   xmlns="http://www.w3.org/2000/svg"
   xmlns:svg="http://www.w3.org/2000/svg"><defs
     id="defs1" /><g
     id="layer1"
     transform="translate(-822.32172,-1630.0037)"><g
       id="g3"><rect
         style="fill:#f4f4f4;fill-opacity:1;stroke-width:1.05504"
         id="rect5"
         width="358.63077"
         height="358.63077"
         x="822.32172"
         y="1630.0037"
         ry="68.719666" /><g
         id="g5"
         transform="matrix(0.9577536,0,0,0.9577536,-125.6767,70.579481)"><path
           style="font-size:93.2987px;font-family:Inter;-inkscape-font-specification:Inter;fill:#4d4d4d;stroke-width:3.74094"
           d="m 1030,1954.0461 v -83.2103 h 10.4969 v 30.7163 h 0.8896 c 0.771,-1.0834 1.8385,-2.4649 3.2025,-4.1442 1.3936,-1.7065 3.3803,-3.2234 5.9601,-4.5506 2.6094,-1.3543 6.138,-2.0315 10.5859,-2.0315 5.7526,0 10.8231,1.3137 15.2117,3.9411 4.3885,2.6274 7.8134,6.3518 10.2745,11.1732 2.4612,4.8215 3.6917,10.5097 3.6917,17.0647 0,6.6091 -1.2305,12.3379 -3.6917,17.1864 -2.4611,4.8215 -5.8712,8.5595 -10.2301,11.214 -4.3588,2.6273 -9.3849,2.7985 -15.0782,2.7985 -16.4984,0 -13.5619,-0.1758 -21.1718,-0.1576 z m 10.319,-31.2039 c 0,4.7131 0.7562,8.8709 2.2684,12.4734 1.5123,3.5755 3.7214,6.3789 6.6274,8.4104 2.9059,2.0045 6.4642,3.0067 10.6748,3.0067 4.3885,0 8.0506,-1.0564 10.9862,-3.1691 2.9652,-2.1398 5.1892,-5.0111 6.6718,-8.6136 1.5122,-3.6296 2.2684,-7.6656 2.2684,-12.1078 0,-4.388 -0.7413,-8.3426 -2.2239,-11.8639 -1.453,-3.5484 -3.6621,-6.3518 -6.6273,-8.4104 -2.9356,-2.0858 -6.6273,-3.1285 -11.0752,-3.1285 -4.2699,0 -7.8579,0.9886 -10.7638,2.966 -2.906,1.9501 -5.1002,4.6859 -6.5828,8.2072 -1.4827,3.4943 -2.224,7.5708 -2.224,12.2296 z m 66.0062,31.2039 v -62.4078 h 10.497 v 62.4078 z m 5.3375,-72.809 c -2.046,0 -3.8103,-0.6365 -5.293,-1.9096 -1.4529,-1.2731 -2.1794,-2.8035 -2.1794,-4.5911 0,-1.7878 0.7265,-3.3182 2.1794,-4.5913 1.4827,-1.2731 3.247,-1.9096 5.293,-1.9096 2.046,0 3.7955,0.6365 5.2485,1.9096 1.4826,1.2731 2.2239,2.8035 2.2239,4.5913 0,1.7876 -0.7413,3.318 -2.2239,4.5911 -1.453,1.2731 -3.2025,1.9096 -5.2485,1.9096 z m 24.3741,72.809 v -62.4078 h 10.1411 v 9.7512 h 0.8896 c 1.4233,-3.3316 3.7214,-5.9183 6.8942,-7.7602 3.1728,-1.8691 6.9831,-2.8035 11.431,-2.8035 4.5072,0 8.2582,0.9344 11.2531,2.8035 3.0245,1.8419 5.3819,4.4286 7.0721,7.7602 h 0.7116 c 1.7495,-3.2232 4.3738,-5.783 7.8728,-7.679 3.4989,-1.9232 7.6947,-2.8847 12.5873,-2.8847 6.1084,0 11.1048,1.747 14.9892,5.2412 3.8846,3.4672 5.8268,8.8709 5.8268,16.2115 v 41.7676 h -10.4969 v -41.7676 c 0,-4.6048 -1.3788,-7.8958 -4.1366,-9.8731 -2.7576,-1.9774 -6.0046,-2.966 -9.7408,-2.966 -4.8036,0 -8.525,1.3272 -11.1641,3.9817 -2.639,2.6275 -3.9585,5.9591 -3.9585,9.9949 v 40.6301 h -10.6749 v -42.7428 c 0,-3.5484 -1.2602,-6.4059 -3.7807,-8.5729 -2.5204,-2.194 -5.7674,-3.291 -9.7408,-3.291 -2.728,0 -5.2781,0.6636 -7.6503,1.9908 -2.3425,1.3272 -4.2403,3.1691 -5.6933,5.5258 -1.4233,2.3294 -2.1349,5.0245 -2.1349,8.0853 v 39.0048 z"
           id="text1-1-3-8"
           aria-label="bim" /><path
           style="font-size:93.2987px;font-family:Inter;-inkscape-font-specification:Inter;fill:#5085a5;stroke-width:4.01111"
           d="m 1281.4826,1944.2947 h 40.2535 v 11.255 h -89.2198 v -11.255 l 21.3749,-0.2475 c 0,-5.5056 0.241,-12.2948 0.059,-22.2625 0,-4.9917 0.9148,-9.3634 2.7444,-13.1151 1.8008,-3.7516 4.5743,-6.6608 8.3209,-8.7273 3.7175,-2.0984 8.4515,-3.1476 14.202,-3.1476 h 42.5186 v 11.255 h -41.8217 c -5.3148,0 -9.4244,1.5102 -12.3286,4.5306 -2.9334,2.9886 -4.4001,7.1377 -4.4001,12.4473 0,3.6881 0.7115,6.9947 2.1348,9.9197 1.423,2.8932 3.4996,5.1824 6.2296,6.8675 2.7301,1.6532 6.0409,2.4799 9.9327,2.4799 z m 12.895,-114.2672 h -39.5564 v -11.255 h 66.9149 v 11.255 h -11.3267 v 0.763 c 3.3979,1.7169 6.2877,4.3875 8.6693,8.0121 2.3523,3.6245 3.5286,8.2027 3.5286,13.7349 0,4.5784 -0.9149,8.648 -2.7446,12.2088 -1.8586,3.5609 -4.6469,6.3587 -8.3643,8.3936 -3.7466,2.0347 -8.466,3.0523 -14.1584,3.0523 h -42.5188 v -11.2551 h 41.8219 c 4.8791,0 8.7709,-1.4943 11.6751,-4.483 2.9044,-3.0203 4.3565,-6.8675 4.3565,-11.5412 0,-2.7978 -0.6535,-5.6433 -1.9605,-8.5366 -1.3069,-2.925 -3.3109,-5.3732 -6.0119,-7.3443 -2.7008,-2.0031 -6.1426,-3.0045 -10.3247,-3.0045 z m 27.3585,-33.3834 h -89.2198 v -11.255 h 32.9346 v -0.954 c -1.1616,-0.8265 -2.6429,-1.9712 -4.4435,-3.4337 -1.8297,-1.4942 -3.4562,-3.6244 -4.8792,-6.3905 -1.4521,-2.7979 -2.1783,-6.5813 -2.1783,-11.3504 0,-6.168 1.4087,-11.6047 4.2258,-16.3102 2.8171,-4.7056 6.8105,-8.3778 11.9802,-11.0166 5.1696,-2.639 11.2686,-3.9583 18.297,-3.9583 7.0864,0 13.229,1.3193 18.4277,3.9583 5.1696,2.6388 9.1776,6.2952 12.0237,10.9689 2.8172,4.6737 4.2258,10.0626 4.2258,16.1671 0,4.7055 -0.7115,8.4731 -2.1346,11.3028 -1.4523,2.8296 -3.0931,5.0074 -4.9229,6.5335 -1.8586,1.5262 -3.3979,2.7026 -4.6178,3.5291 v 1.3354 h 10.2813 z m -33.4575,-11.0644 c 5.0534,0 9.5116,-0.8107 13.3742,-2.4322 3.8337,-1.6214 6.8397,-3.99 9.018,-7.1058 2.149,-3.1158 3.2236,-6.9312 3.2236,-11.4459 0,-4.7055 -1.1326,-8.632 -3.398,-11.7796 -2.2943,-3.1793 -5.3729,-5.5639 -9.2356,-7.1536 -3.8918,-1.6215 -8.2192,-2.4322 -12.9822,-2.4322 -4.7049,0 -8.9451,0.7948 -12.7207,2.3845 -3.8046,1.5579 -6.8105,3.9265 -9.0179,7.1059 -2.2363,3.1475 -3.3544,7.106 -3.3544,11.875 0,4.5784 1.06,8.4254 3.1802,11.5412 2.091,3.1158 5.0244,5.4685 8.8,7.0581 3.7466,1.5899 8.1175,2.3846 13.1128,2.3846 z"
           id="text1-8-6-7-9"
           aria-label="hub" /><path
           style="fill:#5085a5;fill-opacity:1;stroke-width:1.32374"
           d="m 1295.6254,1683 h 30.784 v 30.5424"
           id="path1-9" /></g></g></g></svg>
