<?xml version="1.0" encoding="UTF-8" standalone="no"?>
<!-- Created with Inkscape (http://www.inkscape.org/) -->

<svg
   width="826.18457"
   height="173.23096"
   viewBox="0 0 826.18457 173.23096"
   version="1.1"
   id="svg1"
   xml:space="preserve"
   inkscape:version="1.3.2 (091e20e, 2023-11-25, custom)"
   sodipodi:docname="Logo Bimhub.svg"
   inkscape:export-filename="Logo 2.svg"
   inkscape:export-xdpi="96"
   inkscape:export-ydpi="96"
   xmlns:inkscape="http://www.inkscape.org/namespaces/inkscape"
   xmlns:sodipodi="http://sodipodi.sourceforge.net/DTD/sodipodi-0.dtd"
   xmlns="http://www.w3.org/2000/svg"
   xmlns:svg="http://www.w3.org/2000/svg"><sodipodi:namedview
     id="namedview1"
     pagecolor="#ffffff"
     bordercolor="#000000"
     borderopacity="0.25"
     inkscape:showpageshadow="2"
     inkscape:pageopacity="0.0"
     inkscape:pagecheckerboard="0"
     inkscape:deskcolor="#d1d1d1"
     inkscape:document-units="px"
     inkscape:zoom="0.34739582"
     inkscape:cx="4146.5669"
     inkscape:cy="2730.3149"
     inkscape:window-width="1920"
     inkscape:window-height="1009"
     inkscape:window-x="-8"
     inkscape:window-y="410"
     inkscape:window-maximized="1"
     inkscape:current-layer="layer1"
     showguides="true" /><defs
     id="defs1" /><g
     inkscape:label="Camada 1"
     inkscape:groupmode="layer"
     id="layer1"
     transform="translate(-4532.5728,-3344.9565)"><path
       style="font-size:93.2987px;font-family:Inter;-inkscape-font-specification:Inter;fill:#ffffff;stroke-width:7.33313"
       d="m 4532.5727,3513.1654 v -163.1117 h 20.5764 v 60.2112 h 1.7438 c 1.5113,-2.1239 3.6038,-4.8318 6.2776,-8.1238 2.7319,-3.345 6.6263,-6.3184 11.6832,-8.9201 5.1151,-2.6548 12.0321,-3.9822 20.7509,-3.9822 11.2764,0 21.2159,2.5751 29.8185,7.7255 8.6026,5.1503 15.316,12.451 20.1405,21.9022 4.8244,9.4511 7.2366,20.6013 7.2366,33.4506 0,12.9555 -2.4122,24.1854 -7.2366,33.6896 -4.8245,9.4511 -11.5089,16.7784 -20.0534,21.9818 -8.5444,5.1504 -18.3967,5.4858 -29.5568,5.4858 -32.3408,0 -26.5846,-0.3446 -41.5018,-0.3089 z m 20.2277,-61.1669 c 0,9.2388 1.4822,17.3891 4.4466,24.4509 2.9644,7.0087 7.2948,12.5041 12.9911,16.4863 5.6963,3.9292 12.6714,5.8937 20.9252,5.8937 8.6026,0 15.7811,-2.0707 21.5356,-6.2122 5.8125,-4.1946 10.172,-9.8228 13.0782,-16.8846 2.9644,-7.1149 4.4466,-15.0263 4.4466,-23.7341 0,-8.6016 -1.4531,-16.3536 -4.3594,-23.2561 -2.8481,-6.9556 -7.1785,-12.4511 -12.991,-16.4864 -5.7545,-4.0884 -12.9911,-6.1326 -21.71,-6.1326 -8.3701,0 -15.4033,1.938 -21.0996,5.814 -5.6963,3.8229 -9.9976,9.1856 -12.9039,16.0882 -2.9063,6.8494 -4.3594,14.8404 -4.3594,23.9729 z m 129.3877,61.1669 v -122.3338 h 20.5765 v 122.3338 z m 10.4627,-142.7227 c -4.0107,0 -7.4692,-1.2478 -10.3755,-3.7433 -2.8481,-2.4956 -4.2722,-5.4955 -4.2722,-8.9998 0,-3.5044 1.4241,-6.5043 4.2722,-8.9998 2.9063,-2.4956 6.3648,-3.7433 10.3755,-3.7433 4.0106,0 7.44,1.2477 10.2882,3.7433 2.9063,2.4955 4.3594,5.4954 4.3594,8.9998 0,3.5043 -1.4531,6.5042 -4.3594,8.9998 -2.8482,2.4955 -6.2776,3.7433 -10.2882,3.7433 z m 47.779,142.7227 v -122.3338 h 19.879 v 19.1147 h 1.7437 c 2.7901,-6.5308 7.2948,-11.6015 13.5143,-15.2121 6.2194,-3.6636 13.6885,-5.4954 22.4074,-5.4954 8.8351,0 16.188,1.8318 22.0587,5.4954 5.9288,3.6106 10.5498,8.6813 13.8629,15.2121 h 1.395 c 3.4295,-6.3185 8.5736,-11.336 15.4324,-15.0528 6.8588,-3.7698 15.0836,-5.6547 24.6743,-5.6547 11.9739,0 21.7681,3.4247 29.3826,10.2741 7.6144,6.7963 11.4216,17.389 11.4216,31.7781 v 81.8744 h -20.5765 v -81.8744 c 0,-9.0264 -2.7028,-15.4776 -8.1085,-19.3536 -5.4057,-3.876 -11.7704,-5.814 -19.0942,-5.814 -9.4164,0 -16.7112,2.6017 -21.8844,7.8051 -5.1731,5.1503 -7.7597,11.6812 -7.7597,19.5925 v 79.6444 h -20.9253 v -83.7859 c 0,-6.9556 -2.4703,-12.5572 -7.411,-16.8049 -4.9407,-4.3008 -11.3054,-6.4512 -19.0942,-6.4512 -5.3476,0 -10.3464,1.3008 -14.9965,3.9025 -4.5919,2.6018 -8.3119,6.2123 -11.1601,10.8317 -2.79,4.5663 -4.185,9.8493 -4.185,15.8492 v 76.4586 z"
       id="text1-1-3-6"
       aria-label="bim"
       sodipodi:nodetypes="cccccccssssccsccsccsccsccsccscccccscscscscsccccccsccccscsccssscsccscsccscc"
       inkscape:export-filename="branco.svg"
       inkscape:export-xdpi="277.09"
       inkscape:export-ydpi="277.09" /><path
       style="font-size:93.2987px;font-family:Inter;-inkscape-font-specification:Inter;fill:#ffffff;stroke-width:7.33313"
       d="m 4970.5943,3442.0474 v 73.5915 h -20.5765 v -163.1118 h 20.5765 l 0.4525,39.0776 c 10.0653,0.013 22.4773,0.4406 40.7005,0.1074 9.1257,0 17.118,1.6725 23.9768,5.0176 6.8588,3.2919 12.1773,8.3626 15.9555,15.212 3.8362,6.7963 5.7544,15.451 5.7544,25.9641 v 77.7329 h -20.5765 v -76.4586 c 0,-9.7166 -2.7609,-17.2297 -8.2828,-22.5393 -5.4639,-5.3628 -13.0493,-8.0441 -22.7563,-8.0441 -6.7425,0 -12.7876,1.3008 -18.1351,3.9025 -5.2895,2.6018 -9.4745,6.3982 -12.5552,11.3892 -3.0225,4.991 -4.5338,11.044 -4.5338,18.1589 z m 208.9038,23.5748 v -72.3171 h 20.5764 v 122.3338 h -20.5764 v -20.7076 h -1.3951 c -3.1388,6.2123 -8.0213,11.4953 -14.6476,15.8492 -6.6264,4.3008 -14.9965,6.4513 -25.1103,6.4513 -8.3701,0 -15.8102,-1.6726 -22.3202,-5.0176 -6.5101,-3.3982 -11.6252,-8.4955 -15.3452,-15.2918 -3.72,-6.8494 -5.5801,-15.4775 -5.5801,-25.8844 v -77.7329 h 20.5765 v 76.4586 c 0,8.9202 2.7319,16.0351 8.1957,21.3447 5.522,5.3096 12.5552,7.9644 21.0996,7.9644 5.1151,0 10.3173,-1.1947 15.6068,-3.584 5.3475,-2.3893 9.8232,-6.0529 13.427,-10.9909 3.6619,-4.938 5.4929,-11.2299 5.4929,-18.8757 z m 61.0316,50.0167 v -163.1118 h 20.5765 v 60.2112 h 1.7438 c 1.5113,-2.1238 3.6038,-4.8318 6.2776,-8.1237 2.7319,-3.3451 6.6263,-6.3185 11.6832,-8.9202 5.1151,-2.6548 12.032,-3.9822 20.7509,-3.9822 11.2764,0 21.2157,2.5752 29.8183,7.7255 8.6028,5.1503 15.3163,12.451 20.1406,21.9022 4.8245,9.4511 7.2366,20.6013 7.2366,33.4506 0,12.9555 -2.4121,24.1854 -7.2366,33.6896 -4.8243,9.4512 -11.5088,16.7784 -20.0533,21.9819 -8.5445,5.1503 -18.3967,7.7255 -29.5569,7.7255 -8.6026,0 -15.4905,-1.3009 -20.6636,-3.9026 -5.1732,-2.6548 -9.1549,-5.6548 -11.9449,-8.9998 -2.79,-3.3982 -4.9406,-6.2123 -6.4519,-8.4423 h -2.4413 v 18.7961 z m 20.2278,-61.1669 c 0,9.2387 1.4822,17.389 4.4466,24.4508 2.9644,7.0087 7.2947,12.5042 12.9911,16.4864 5.6963,3.9291 12.6713,5.8936 20.9252,5.8936 8.6026,0 15.7811,-2.0707 21.5355,-6.2122 5.8125,-4.1946 10.172,-9.8228 13.0783,-16.8846 2.9643,-7.1149 4.4465,-15.0263 4.4465,-23.734 0,-8.6016 -1.453,-16.3537 -4.3592,-23.2562 -2.8482,-6.9556 -7.1785,-12.4511 -12.9912,-16.4864 -5.7544,-4.0884 -12.9911,-6.1326 -21.7099,-6.1326 -8.3701,0 -15.4033,1.938 -21.0996,5.814 -5.6963,3.823 -9.9976,9.1857 -12.9039,16.0882 -2.9063,6.8494 -4.3594,14.8404 -4.3594,23.973 z"
       id="text1-8-6-7-4"
       aria-label="hub"
       sodipodi:nodetypes="scccccsccsccscsccsscccccccsccsccscsccscccccccssssccsccccccsccsccsccsccs" /><path
       style="fill:#ffffff;fill-opacity:1;stroke-width:0.729361"
       d="m 5358.6034,3499.1422 v 18.5526 h -15.3851"
       id="path1-3" /></g></svg>
