<?xml version="1.0" encoding="UTF-8" standalone="no"?>
<!-- Created with Inkscape (http://www.inkscape.org/) -->

<svg
   width="630.24841"
   height="283.40686"
   viewBox="0 0 630.24841 283.40686"
   version="1.1"
   id="svg1"
   xml:space="preserve"
   xmlns="http://www.w3.org/2000/svg"
   xmlns:svg="http://www.w3.org/2000/svg"><defs
     id="defs1" /><g
     id="layer1"
     transform="translate(-1771.8883,-1694.2152)"><g
       id="g1"><path
         style="font-size:93.2987px;font-family:Inter;-inkscape-font-specification:Inter;fill:#4d4d4d;stroke-width:12.2042"
         d="m 1771.8883,1965.674 v -271.4588 h 34.2443 v 100.2065 h 2.9021 c 2.5152,-3.5345 5.9976,-8.0414 10.4474,-13.5203 4.5466,-5.5667 11.0279,-10.5152 19.4439,-14.845 8.5127,-4.4186 20.0243,-6.6275 34.5346,-6.6275 18.7667,0 35.3085,4.2855 49.6253,12.8573 14.3169,8.5713 25.4898,20.7215 33.5189,36.4507 8.029,15.7291 12.0436,34.2858 12.0436,55.6704 0,21.5608 -4.0146,40.2502 -12.0436,56.0676 -8.0291,15.7291 -19.1536,27.9238 -33.3738,36.5834 -14.2201,8.5714 -30.6168,9.1298 -49.19,9.1298 -53.8231,0 -44.2433,-0.5735 -69.0692,-0.5141 z m 33.664,-101.7971 c 0,15.3755 2.4667,28.9397 7.4002,40.6922 4.9335,11.6643 12.1403,20.8099 21.6204,27.4374 9.4801,6.5391 21.0884,9.8087 34.8248,9.8087 14.3169,0 26.2637,-3.4462 35.8405,-10.3386 9.6736,-6.9808 16.9287,-16.3478 21.7655,-28.1004 4.9335,-11.8409 7.4003,-25.0075 7.4003,-39.4993 0,-14.3151 -2.4184,-27.2163 -7.2552,-38.7039 -4.74,-11.576 -11.9468,-20.7216 -21.6204,-27.4374 -9.5768,-6.8045 -21.6203,-10.2063 -36.1307,-10.2063 -13.9299,0 -25.6349,3.2252 -35.115,9.676 -9.4801,6.362 -16.6385,15.2871 -21.4753,26.7747 -4.8368,11.3993 -7.2551,24.6981 -7.2551,39.8969 z"
         id="text1-1-3-5"
         aria-label="bim" /><path
         style="font-size:93.2987px;font-family:Inter;-inkscape-font-specification:Inter;fill:#5085a5;stroke-width:12.2042"
         d="m 2022.1443,1849.4458 v 122.4748 h -34.2444 v -271.4589 h 34.2444 l 0.7531,65.0346 c 16.7511,0.042 37.4078,0.7334 67.7357,0.18 15.1874,0 28.4886,2.7836 39.9034,8.3507 11.4147,5.4785 20.266,13.9175 26.5539,25.3168 6.3845,11.3106 9.5768,25.7145 9.5768,43.2109 v 129.3667 h -34.2444 v -127.2462 c 0,-16.1707 -4.5949,-28.6747 -13.7848,-37.511 -9.0931,-8.925 -21.7171,-13.3875 -37.872,-13.3875 -11.2213,0 -21.2818,2.1649 -30.1814,6.4951 -8.803,4.3299 -15.768,10.648 -20.8949,18.9544 -5.0303,8.3063 -7.5454,18.38 -7.5454,30.2209 z"
         id="text1-8-6-7-2"
         aria-label="hub" /><path
         style="font-size:93.2987px;font-family:Inter;-inkscape-font-specification:Inter;fill:#4d4d4d;fill-opacity:1;stroke-width:12.2042"
         d="m 2205.3767,1973.3806 v -271.4588 h 34.2444 v 100.206 h 2.902 c 2.5152,-3.5345 5.9977,-8.041 10.4475,-13.5198 4.5466,-5.5672 11.0279,-10.5153 19.4438,-14.8455 8.5127,-4.4182 20.0243,-6.627 34.5346,-6.627 18.7667,0 35.3083,4.2854 49.6252,12.8568 14.3172,8.5717 25.4901,20.722 33.519,36.4507 8.0292,15.7291 12.0435,34.2858 12.0435,55.6704 0,21.5613 -4.0143,40.2506 -12.0435,56.0681 -8.0289,15.7291 -19.1536,27.9233 -33.3738,36.5834 -14.2201,8.5713 -30.6167,12.8572 -49.19,12.8572 -14.3168,0 -25.78,-2.1649 -34.3894,-6.4952 -8.6095,-4.4181 -15.2359,-9.4106 -19.8792,-14.9777 -4.6433,-5.6555 -8.2225,-10.3387 -10.7377,-14.0502 h -4.0629 v 31.2816 z m 33.664,-101.7971 c 0,15.3754 2.4667,28.9396 7.4002,40.6922 4.9335,11.6643 12.1403,20.8099 21.6204,27.4373 9.4801,6.5392 21.0884,9.8087 34.8248,9.8087 14.3169,0 26.2637,-3.4462 35.8405,-10.3386 9.6735,-6.9811 16.9288,-16.3478 21.7655,-28.1004 4.9335,-11.8409 7.4002,-25.0074 7.4002,-39.4992 0,-14.3156 -2.4182,-27.2168 -7.2549,-38.7044 -4.7401,-11.5759 -11.9468,-20.7216 -21.6206,-27.4373 -9.5768,-6.8041 -21.6203,-10.2064 -36.1307,-10.2064 -13.9299,0 -25.6349,3.2252 -35.115,9.676 -9.4801,6.3625 -16.6385,15.2871 -21.4753,26.7747 -4.8367,11.3993 -7.2551,24.6982 -7.2551,39.8974 z"
         id="text1-8-6-7-6"
         aria-label="hub" /></g></g></svg>
