<?xml version="1.0" encoding="UTF-8" standalone="no"?>
<!-- Created with Inkscape (http://www.inkscape.org/) -->

<svg
   width="358.63086"
   height="358.63086"
   viewBox="0 0 358.63086 358.63086"
   version="1.1"
   id="svg1"
   xml:space="preserve"
   xmlns="http://www.w3.org/2000/svg"
   xmlns:svg="http://www.w3.org/2000/svg"><defs
     id="defs1" /><g
     id="layer1"
     transform="translate(-1293.9785,-1620.332)"><path
       id="rect5-7"
       style="fill:#5085a5;fill-opacity:1;stroke-width:1.05504"
       d="m 1362.6973,1620.332 c -38.0707,0 -68.7188,30.6501 -68.7188,68.7207 v 221.1914 c 0,38.0707 30.6481,68.7188 68.7188,68.7188 h 221.1914 c 38.0706,0 68.7207,-30.6481 68.7207,-68.7188 v -221.1914 c 0,-38.0706 -30.6501,-68.7207 -68.7207,-68.7207 z m 224.1718,52.4746 h 29.4844 v 29.252 z M 1580,1719.7129 c 6.787,0 12.6693,1.2635 17.6484,3.791 4.9512,2.5273 8.7898,6.0297 11.5157,10.5059 2.6982,4.4763 4.0488,9.6377 4.0488,15.4843 0,4.5067 -0.682,8.1161 -2.0449,10.8262 -1.391,2.7101 -2.9624,4.7962 -4.7149,6.2578 -1.78,1.4617 -3.2554,2.5873 -4.4238,3.3789 v 1.2793 h 9.8477 v 10.4141 h -85.4512 v -10.7793 h 31.543 v -0.9141 c -1.1125,-0.7916 -2.5313,-1.8883 -4.2559,-3.289 -1.7524,-1.4311 -3.309,-3.4699 -4.6719,-6.1192 -1.3908,-2.6797 -2.0859,-6.3035 -2.0859,-10.8711 0,-5.9075 1.3488,-11.1144 4.0469,-15.6211 2.6981,-4.5068 6.5233,-8.0254 11.4746,-10.5527 4.9512,-2.5275 10.7919,-3.791 17.5234,-3.791 z m -0.168,10.7812 c -4.5061,0 -8.5655,0.7607 -12.1816,2.2832 -3.6438,1.4921 -6.5245,3.7596 -8.6387,6.8047 -2.1418,3.0146 -3.2109,6.8056 -3.2109,11.3731 0,4.385 1.0142,8.0705 3.0449,11.0547 2.0026,2.9841 4.8116,5.2372 8.4277,6.7597 3.5883,1.5227 7.7744,2.2832 12.5586,2.2832 4.8399,0 9.1112,-0.7751 12.8106,-2.3281 3.6718,-1.5529 6.5505,-3.8224 8.6367,-6.8066 2.0583,-2.9842 3.0879,-6.6389 3.0879,-10.9629 0,-4.5067 -1.0862,-8.2667 -3.2559,-11.2813 -2.1974,-3.045 -5.1462,-5.329 -8.8457,-6.8515 -3.7274,-1.553 -7.8718,-2.3282 -12.4336,-2.3282 z m -32.0429,72.3497 h 64.0879 v 10.7792 h -10.8477 v 0.7305 c 3.2543,1.6443 6.0218,4.2023 8.3027,7.6738 2.253,3.4714 3.3789,7.8558 3.3789,13.1543 0,4.385 -0.8765,8.2831 -2.6289,11.6934 -1.7801,3.4105 -4.4494,6.0902 -8.0097,8.0391 -3.5883,1.9488 -8.1087,2.9238 -13.5606,2.9238 h -40.7226 v -10.7793 h 40.0547 c 4.6727,0 8.4001,-1.4306 11.1816,-4.293 2.7817,-2.8927 4.1738,-6.5785 4.1738,-11.0547 0,-2.6797 -0.6271,-5.4046 -1.8789,-8.1757 -1.2517,-2.8014 -3.1709,-5.1454 -5.7578,-7.0332 -2.5867,-1.9185 -5.8833,-2.879 -9.8887,-2.879 h -37.8847 z m -137.1114,47.373 c 1.9596,0 3.6358,0.6108 5.0274,1.8301 1.42,1.2193 2.1308,2.6842 2.1308,4.3965 0,1.7121 -0.7108,3.1771 -2.1308,4.3964 -1.3916,1.2194 -3.0678,1.8301 -5.0274,1.8301 -1.9595,0 -3.6482,-0.6107 -5.0683,-1.8301 -1.3915,-1.2193 -2.0879,-2.6843 -2.0879,-4.3964 0,-1.7123 0.6964,-3.1772 2.0879,-4.3965 1.4201,-1.2193 3.1088,-1.8301 5.0683,-1.8301 z m -78.2129,2.4902 h 10.0547 v 29.42 h 0.8516 c 0.7385,-1.0376 1.7601,-2.3604 3.0664,-3.9688 1.3348,-1.6344 3.2381,-3.0883 5.709,-4.3594 2.4991,-1.2971 5.8787,-1.9453 10.1387,-1.9453 5.5096,0 10.3651,1.2571 14.5683,3.7735 4.2031,2.5164 7.4847,6.0833 9.8418,10.7011 2.3573,4.6178 3.5352,10.0658 3.5352,16.3438 0,6.3299 -1.1779,11.8172 -3.5352,16.4609 -2.3571,4.6178 -5.624,8.1979 -9.7988,10.7402 -4.1746,2.5163 -8.9886,2.6797 -14.4414,2.6797 -15.8014,0 -12.989,-0.1679 -20.2774,-0.1504 h -9.7129 z m 129.6739,19.1465 c 4.3168,0 7.9089,0.8955 10.7773,2.6856 2.8967,1.7641 5.1547,4.2408 6.7735,7.4316 h 0.6816 c 1.6756,-3.087 4.1898,-5.5396 7.541,-7.3555 3.3511,-1.8419 7.3688,-2.7617 12.0547,-2.7617 5.8504,0 10.6352,1.6731 14.3555,5.0195 3.7205,3.3207 5.58,8.4969 5.58,15.5274 v 40.0019 h -10.0527 v -40.0019 c 0,-4.4103 -1.3196,-7.5632 -3.9609,-9.457 -2.6411,-1.8939 -5.7517,-2.8399 -9.3301,-2.8399 -4.6006,0 -8.1638,1.2701 -10.6914,3.8125 -2.5275,2.5165 -3.793,5.707 -3.793,9.5723 v 38.914 h -10.2226 v -40.9375 c 0,-3.3985 -1.2071,-6.1335 -3.6211,-8.2089 -2.4139,-2.1014 -5.5245,-3.1524 -9.3301,-3.1524 -2.6127,0 -5.0542,0.6352 -7.3262,1.9063 -2.2435,1.2711 -4.0615,3.0358 -5.4531,5.2929 -1.3632,2.231 -2.0449,4.8107 -2.0449,7.7422 v 37.3574 h -10.0528 v -59.7714 h 9.7129 v 9.3398 h 0.8516 c 1.3632,-3.1908 3.5629,-5.6675 6.6016,-7.4316 3.0388,-1.7901 6.6892,-2.6856 10.9492,-2.6856 z m -56.5723,0.7774 h 10.0527 v 59.7714 h -10.0527 z m 165.5879,4.9394 h 40.7227 v 10.7793 h -40.0547 c -5.0903,0 -9.0271,1.4471 -11.8086,4.3399 -2.8094,2.8624 -4.2149,6.8346 -4.2149,11.9199 0,3.5323 0.6819,6.7005 2.045,9.5019 1.3627,2.771 3.352,4.9623 5.9667,6.5762 2.6147,1.5833 5.7863,2.375 9.5137,2.375 h 38.5528 v 10.7813 h -85.4512 v -10.7813 l 20.4726,-0.2363 c 0,-5.273 0.2315,-11.7757 0.057,-21.3223 0,-4.7808 0.8746,-8.9673 2.6269,-12.5605 1.7248,-3.5931 4.3824,-6.3802 7.9707,-8.3594 3.5605,-2.0097 8.0941,-3.0137 13.6016,-3.0137 z m -210.0625,2.5332 c -4.0896,0 -7.5255,0.946 -10.3086,2.8399 -2.7833,1.8677 -4.8848,4.4887 -6.3047,7.8613 -1.4201,3.3466 -2.1308,7.2509 -2.1308,11.7129 0,4.514 0.7255,8.495 2.1738,11.9453 1.4484,3.4245 3.5644,6.111 6.3476,8.0566 2.7832,1.9199 6.1899,2.8789 10.2227,2.8789 4.2031,0 7.7118,-1.0117 10.5234,-3.0351 2.84,-2.0494 4.9687,-4.7997 6.3887,-8.25 1.4483,-3.4763 2.1738,-7.3412 2.1738,-11.5957 0,-4.2026 -0.7109,-7.9908 -2.1308,-11.3633 -1.3916,-3.3985 -3.5078,-6.083 -6.3477,-8.0547 -2.8116,-1.9977 -6.3475,-2.9961 -10.6074,-2.9961 z" /></g></svg>
